<?xml version="1.0" encoding="UTF-8" standalone="no"?>
<!DOCTYPE svg PUBLIC "-//W3C//DTD SVG 1.1//EN"
 "http://www.w3.org/Graphics/SVG/1.1/DTD/svg11.dtd">
<!-- Generated by graphviz version 2.47.0 (20210316.0004)
 -->
<!-- Title: dependencies Pages: 1 -->
<svg width="504pt" height="284pt"
 viewBox="0.00 0.00 504.00 284.00" xmlns="http://www.w3.org/2000/svg" xmlns:xlink="http://www.w3.org/1999/xlink">
<g id="graph0" class="graph" transform="scale(1 1) rotate(0) translate(4 280)">
<title>dependencies</title>
<polygon fill="white" stroke="transparent" points="-4,4 -4,-280 500,-280 500,4 -4,4"/>
<text text-anchor="start" x="227.01" y="-42.4" font-family="Times-12" font-weight="bold" font-size="14.00">Legend</text>
<polygon fill="#ffffb3" stroke="transparent" points="14,-10 14,-30 34,-30 34,-10 14,-10"/>
<text text-anchor="start" x="37.63" y="-15.4" font-family="Times-12" font-size="14.00"> &#160;Declarations</text>
<polygon fill="#8dd3c7" stroke="transparent" points="127,-10 127,-30 147,-30 147,-10 127,-10"/>
<text text-anchor="start" x="150.73" y="-15.4" font-family="Times-12" font-size="14.00"> &#160;Module</text>
<polygon fill="#80b1d3" stroke="transparent" points="213,-10 213,-30 233,-30 233,-10 213,-10"/>
<text text-anchor="start" x="236.78" y="-15.4" font-family="Times-12" font-size="14.00"> &#160;Bootstrap</text>
<polygon fill="#fdb462" stroke="transparent" points="310,-10 310,-30 330,-30 330,-10 310,-10"/>
<text text-anchor="start" x="333.67" y="-15.4" font-family="Times-12" font-size="14.00"> &#160;Providers</text>
<polygon fill="#fb8072" stroke="transparent" points="406,-10 406,-30 426,-30 426,-10 406,-10"/>
<text text-anchor="start" x="429.73" y="-15.4" font-family="Times-12" font-size="14.00"> &#160;Exports</text>
<g id="clust1" class="cluster">
<title>cluster_SharedModule</title>
<polygon fill="none" stroke="black" stroke-dasharray="1,5" points="14,-70 14,-268 482,-268 482,-70 14,-70"/>
</g>
<g id="clust6" class="cluster">
<title>cluster_SharedModule_exports</title>
<polygon fill="none" stroke="black" points="204,-208 204,-260 346,-260 346,-208 204,-208"/>
</g>
<g id="clust5" class="cluster">
<title>cluster_SharedModule_imports</title>
<polygon fill="none" stroke="black" points="352,-78 352,-130 474,-130 474,-78 352,-78"/>
</g>
<g id="clust2" class="cluster">
<title>cluster_SharedModule_declarations</title>
<polygon fill="none" stroke="black" points="22,-78 22,-130 344,-130 344,-78 22,-78"/>
</g>
<!-- HeaderComponent -->
<g id="node1" class="node">
<title>HeaderComponent</title>
<polygon fill="#ffffb3" stroke="black" points="335.74,-122 214.26,-122 214.26,-86 335.74,-86 335.74,-122"/>
<text text-anchor="middle" x="275" y="-99.8" font-family="Times,serif" font-size="14.00">HeaderComponent</text>
</g>
<!-- SharedModule -->
<g id="node3" class="node">
<title>SharedModule</title>
<polygon fill="#8dd3c7" stroke="black" points="324.42,-187 321.42,-191 300.42,-191 297.42,-187 225.58,-187 225.58,-151 324.42,-151 324.42,-187"/>
<text text-anchor="middle" x="275" y="-164.8" font-family="Times,serif" font-size="14.00">SharedModule</text>
</g>
<!-- HeaderComponent&#45;&gt;SharedModule -->
<g id="edge1" class="edge">
<title>HeaderComponent&#45;&gt;SharedModule</title>
<path fill="none" stroke="black" d="M275,-122.11C275,-122.11 275,-140.99 275,-140.99"/>
<polygon fill="black" stroke="black" points="271.5,-140.99 275,-150.99 278.5,-140.99 271.5,-140.99"/>
</g>
<!-- NotPageFoundComponent -->
<g id="node2" class="node">
<title>NotPageFoundComponent</title>
<polygon fill="#ffffb3" stroke="black" points="195.82,-122 30.18,-122 30.18,-86 195.82,-86 195.82,-122"/>
<text text-anchor="middle" x="113" y="-99.8" font-family="Times,serif" font-size="14.00">NotPageFoundComponent</text>
</g>
<!-- NotPageFoundComponent&#45;&gt;SharedModule -->
<g id="edge2" class="edge">
<title>NotPageFoundComponent&#45;&gt;SharedModule</title>
<path fill="none" stroke="black" d="M113,-122.11C113,-141.34 113,-169 113,-169 113,-169 215.51,-169 215.51,-169"/>
<polygon fill="black" stroke="black" points="215.51,-172.5 225.51,-169 215.51,-165.5 215.51,-172.5"/>
</g>
<!-- HeaderComponent  -->
<g id="node5" class="node">
<title>HeaderComponent </title>
<polygon fill="#fb8072" stroke="black" points="337.74,-252 212.26,-252 212.26,-216 337.74,-216 337.74,-252"/>
<text text-anchor="middle" x="275" y="-229.8" font-family="Times,serif" font-size="14.00">HeaderComponent </text>
</g>
<!-- SharedModule&#45;&gt;HeaderComponent  -->
<g id="edge4" class="edge">
<title>SharedModule&#45;&gt;HeaderComponent </title>
<path fill="none" stroke="black" stroke-dasharray="5,2" d="M275,-187.11C275,-187.11 275,-205.99 275,-205.99"/>
<polygon fill="black" stroke="black" points="271.5,-205.99 275,-215.99 278.5,-205.99 271.5,-205.99"/>
</g>
<!-- MaterialModule -->
<g id="node4" class="node">
<title>MaterialModule</title>
<polygon fill="#8dd3c7" stroke="black" points="466.47,-122 463.47,-126 442.47,-126 439.47,-122 359.53,-122 359.53,-86 466.47,-86 466.47,-122"/>
<text text-anchor="middle" x="413" y="-99.8" font-family="Times,serif" font-size="14.00">MaterialModule</text>
</g>
<!-- MaterialModule&#45;&gt;SharedModule -->
<g id="edge3" class="edge">
<title>MaterialModule&#45;&gt;SharedModule</title>
<path fill="none" stroke="black" d="M413,-122.11C413,-141.34 413,-169 413,-169 413,-169 334.43,-169 334.43,-169"/>
<polygon fill="black" stroke="black" points="334.43,-165.5 324.43,-169 334.43,-172.5 334.43,-165.5"/>
</g>
</g>
</svg>
