<?xml version="1.0" encoding="UTF-8" standalone="no"?>
<!DOCTYPE svg PUBLIC "-//W3C//DTD SVG 1.1//EN"
 "http://www.w3.org/Graphics/SVG/1.1/DTD/svg11.dtd">
<!-- Generated by graphviz version 2.47.0 (20210316.0004)
 -->
<!-- Title: dependencies Pages: 1 -->
<svg width="601pt" height="211pt"
 viewBox="0.00 0.00 601.00 211.00" xmlns="http://www.w3.org/2000/svg" xmlns:xlink="http://www.w3.org/1999/xlink">
<g id="graph0" class="graph" transform="scale(1 1) rotate(0) translate(4 207)">
<title>dependencies</title>
<polygon fill="white" stroke="transparent" points="-4,4 -4,-207 597,-207 597,4 -4,4"/>
<text text-anchor="start" x="275.51" y="-42.4" font-family="Times-12" font-weight="bold" font-size="14.00">Legend</text>
<polygon fill="#ffffb3" stroke="transparent" points="62.5,-10 62.5,-30 82.5,-30 82.5,-10 62.5,-10"/>
<text text-anchor="start" x="86.13" y="-15.4" font-family="Times-12" font-size="14.00"> &#160;Declarations</text>
<polygon fill="#8dd3c7" stroke="transparent" points="175.5,-10 175.5,-30 195.5,-30 195.5,-10 175.5,-10"/>
<text text-anchor="start" x="199.23" y="-15.4" font-family="Times-12" font-size="14.00"> &#160;Module</text>
<polygon fill="#80b1d3" stroke="transparent" points="261.5,-10 261.5,-30 281.5,-30 281.5,-10 261.5,-10"/>
<text text-anchor="start" x="285.28" y="-15.4" font-family="Times-12" font-size="14.00"> &#160;Bootstrap</text>
<polygon fill="#fdb462" stroke="transparent" points="358.5,-10 358.5,-30 378.5,-30 378.5,-10 358.5,-10"/>
<text text-anchor="start" x="382.17" y="-15.4" font-family="Times-12" font-size="14.00"> &#160;Providers</text>
<polygon fill="#fb8072" stroke="transparent" points="454.5,-10 454.5,-30 474.5,-30 474.5,-10 454.5,-10"/>
<text text-anchor="start" x="478.23" y="-15.4" font-family="Times-12" font-size="14.00"> &#160;Exports</text>
<g id="clust1" class="cluster">
<title>cluster_TestModule</title>
<polygon fill="none" stroke="black" stroke-dasharray="1,5" points="8,-70 8,-195 585,-195 585,-70 8,-70"/>
</g>
<g id="clust2" class="cluster">
<title>cluster_TestModule_declarations</title>
<polygon fill="none" stroke="black" points="168,-78 168,-130 577,-130 577,-78 168,-78"/>
</g>
<g id="clust6" class="cluster">
<title>cluster_TestModule_imports</title>
<polygon fill="none" stroke="black" points="16,-78 16,-130 160,-130 160,-78 16,-78"/>
</g>
<!-- AboutComponent -->
<g id="node1" class="node">
<title>AboutComponent</title>
<polygon fill="#ffffb3" stroke="black" points="569.33,-122 452.67,-122 452.67,-86 569.33,-86 569.33,-122"/>
<text text-anchor="middle" x="511" y="-99.8" font-family="Times,serif" font-size="14.00">AboutComponent</text>
</g>
<!-- TestModule -->
<g id="node4" class="node">
<title>TestModule</title>
<polygon fill="#8dd3c7" stroke="black" points="344.65,-187 341.65,-191 320.65,-191 317.65,-187 261.35,-187 261.35,-151 344.65,-151 344.65,-187"/>
<text text-anchor="middle" x="303" y="-164.8" font-family="Times,serif" font-size="14.00">TestModule</text>
</g>
<!-- AboutComponent&#45;&gt;TestModule -->
<g id="edge1" class="edge">
<title>AboutComponent&#45;&gt;TestModule</title>
<path fill="none" stroke="black" d="M511,-122.11C511,-141.34 511,-169 511,-169 511,-169 355.09,-169 355.09,-169"/>
<polygon fill="black" stroke="black" points="355.09,-165.5 345.09,-169 355.09,-172.5 355.09,-165.5"/>
</g>
<!-- ContactComponent -->
<g id="node2" class="node">
<title>ContactComponent</title>
<polygon fill="#ffffb3" stroke="black" points="434.38,-122 309.62,-122 309.62,-86 434.38,-86 434.38,-122"/>
<text text-anchor="middle" x="372" y="-99.8" font-family="Times,serif" font-size="14.00">ContactComponent</text>
</g>
<!-- ContactComponent&#45;&gt;TestModule -->
<g id="edge2" class="edge">
<title>ContactComponent&#45;&gt;TestModule</title>
<path fill="none" stroke="black" d="M327.19,-122.11C327.19,-122.11 327.19,-140.99 327.19,-140.99"/>
<polygon fill="black" stroke="black" points="323.69,-140.99 327.19,-150.99 330.69,-140.99 323.69,-140.99"/>
</g>
<!-- HomeComponent -->
<g id="node3" class="node">
<title>HomeComponent</title>
<polygon fill="#ffffb3" stroke="black" points="291.55,-122 176.45,-122 176.45,-86 291.55,-86 291.55,-122"/>
<text text-anchor="middle" x="234" y="-99.8" font-family="Times,serif" font-size="14.00">HomeComponent</text>
</g>
<!-- HomeComponent&#45;&gt;TestModule -->
<g id="edge3" class="edge">
<title>HomeComponent&#45;&gt;TestModule</title>
<path fill="none" stroke="black" d="M276.47,-122.11C276.47,-122.11 276.47,-140.99 276.47,-140.99"/>
<polygon fill="black" stroke="black" points="272.97,-140.99 276.47,-150.99 279.97,-140.99 272.97,-140.99"/>
</g>
<!-- TestRoutingModule -->
<g id="node5" class="node">
<title>TestRoutingModule</title>
<polygon fill="#8dd3c7" stroke="black" points="152.27,-122 149.27,-126 128.27,-126 125.27,-122 23.73,-122 23.73,-86 152.27,-86 152.27,-122"/>
<text text-anchor="middle" x="88" y="-99.8" font-family="Times,serif" font-size="14.00">TestRoutingModule</text>
</g>
<!-- TestRoutingModule&#45;&gt;TestModule -->
<g id="edge4" class="edge">
<title>TestRoutingModule&#45;&gt;TestModule</title>
<path fill="none" stroke="black" d="M88,-122.11C88,-141.34 88,-169 88,-169 88,-169 251.29,-169 251.29,-169"/>
<polygon fill="black" stroke="black" points="251.29,-172.5 261.29,-169 251.29,-165.5 251.29,-172.5"/>
</g>
</g>
</svg>
